Coordinates
version=1
nRows=65
nColumns=12
inDegrees=yes

Units are S.I. units (second, meters, Newtons, ...)
Angles are in degrees

endheader
time	SC_y	SC_z	SC_x	AC_y	AC_z	AC_x	GH_y	GH_z	GH_yy	EL_x	PS_y
       0.0              -45.34          31.67          24.52          31.21         -6.979         -5.947          133.1          20.93          55.66          63.37          113.1
  0.003343              -45.35          31.67          24.52          31.22         -6.979         -5.947          133.1          20.94          55.67          63.36          113.0
  0.006686              -45.35          31.67          24.53          31.22          -6.98         -5.948          133.1          20.95          55.67          63.36          113.0
   0.01003              -45.35          31.66          24.54          31.22          -6.98         -5.948          133.0          20.96          55.68          63.36          113.0
   0.01337              -45.35          31.66          24.54          31.22         -6.981         -5.948          133.0          20.97          55.68          63.36          113.0
   0.01672              -45.35          31.66          24.55          31.23         -6.982         -5.948          133.0          20.99          55.69          63.35          113.0
   0.02006              -45.36          31.65          24.56          31.23         -6.983         -5.949          132.9           21.0          55.69          63.35          113.0
    0.0234              -45.36          31.65          24.56          31.23         -6.984         -5.949          132.9          21.01           55.7          63.35          113.0
   0.02675              -45.36          31.65          24.57          31.24         -6.985         -5.949          132.8          21.03          55.71          63.34          112.9
   0.03009              -45.37          31.64          24.58          31.24         -6.986          -5.95          132.8          21.05          55.71          63.34          112.9
   0.03343              -45.37          31.64          24.59          31.24         -6.987          -5.95          132.7          21.06          55.72          63.33          112.9
   0.03678              -45.37          31.63           24.6          31.25         -6.988          -5.95          132.6          21.08          55.73          63.33          112.9
   0.04012              -45.38          31.63          24.61          31.25         -6.989         -5.951          132.6           21.1          55.74          63.33          112.9
   0.04346              -45.38          31.62          24.62          31.26         -6.991         -5.951          132.5          21.12          55.74          63.32          112.8
   0.04681              -45.39          31.61          24.63          31.26         -6.992         -5.952          132.4          21.15          55.75          63.31          112.8
   0.05015              -45.39          31.61          24.65          31.27         -6.994         -5.952          132.3          21.17          55.77          63.31          112.8
   0.05349               -45.4           31.6          24.66          31.27         -6.995         -5.953          132.2           21.2          55.78           63.3          112.8
   0.05683               -45.4          31.59          24.68          31.28         -6.997         -5.954          132.1          21.23          55.79          63.29          112.7
   0.06018              -45.41          31.58           24.7          31.29         -6.999         -5.954          132.0          21.26           55.8          63.29          112.7
   0.06352              -45.41          31.57          24.72          31.29         -7.002         -5.955          131.9           21.3          55.82          63.28          112.6
   0.06686              -45.42          31.56          24.74           31.3         -7.004         -5.956          131.8          21.34          55.84          63.27          112.6
   0.07021              -45.43          31.55          24.76          31.31         -7.007         -5.957          131.6          21.38          55.85          63.26          112.5
   0.07355              -45.44          31.54          24.79          31.32          -7.01         -5.958          131.5          21.43          55.87          63.25          112.5
   0.07689              -45.45          31.52          24.82          31.33         -7.013         -5.959          131.3          21.48           55.9          63.23          112.4
   0.08024              -45.46          31.51          24.85          31.35         -7.017          -5.96          131.1          21.54          55.92          63.22          112.4
   0.08358              -45.47          31.49          24.89          31.36         -7.021         -5.962          130.8          21.61          55.95           63.2          112.3
   0.08692              -45.49          31.47          24.93          31.38         -7.026         -5.963          130.6          21.68          55.98          63.19          112.2
   0.09027              -45.51          31.45          24.97           31.4         -7.031         -5.965          130.3          21.77          56.02          63.17          112.1
   0.09361              -45.52          31.42          25.02          31.42         -7.037         -5.967          130.0          21.86          56.06          63.14          112.0
   0.09695              -45.54          31.39          25.08          31.44         -7.044         -5.969          129.6          21.97           56.1          63.12          111.9
    0.1003              -45.57          31.36          25.15          31.47         -7.051         -5.972          129.2          22.09          56.15          63.09          111.7
    0.1036               -45.6          31.32          25.22           31.5          -7.06         -5.975          128.8          22.23          56.21          63.06          111.6
     0.107              -45.63          31.28          25.31          31.53          -7.07         -5.978          128.2          22.39          56.28          63.02          111.4
    0.1103              -45.66          31.23          25.41          31.57         -7.082         -5.982          127.6          22.58          56.36          62.97          111.2
    0.1137              -45.71          31.17          25.53          31.62         -7.096         -5.987          126.8           22.8          56.45          62.92          110.9
     0.117              -45.76           31.1          25.67          31.68         -7.112         -5.992          126.0          23.06          56.56          62.86          110.7
    0.1204              -45.82          31.02          25.84          31.74         -7.132         -5.999          124.9          23.37          56.69          62.78          110.3
    0.1237              -45.89          30.92          26.04          31.82         -7.155         -6.007          123.7          23.74          56.84           62.7          109.9
     0.127              -45.97          30.79          26.28          31.92         -7.183         -6.016          122.2          24.18          57.03          62.59          109.4
    0.1304              -46.08          30.65          26.58          32.04         -7.217         -6.028          120.3          24.73          57.26          62.46          108.8
    0.1337              -46.21          30.47          26.94          32.19         -7.259         -6.042          118.0           25.4          57.54           62.3          108.0
    0.1371              -46.37          30.24           27.4          32.37         -7.312          -6.06          115.2          26.24           57.9           62.1          107.1
    0.1404              -46.58          29.95          27.97           32.6         -7.379         -6.082          111.6           27.3          58.34          61.84          105.9
    0.1438              -46.84          29.59           28.7          32.89         -7.463         -6.111          107.1          28.64          58.91          61.52          104.4
    0.1471              -47.17          29.12          29.63          33.27         -7.572         -6.147          101.3          30.37          59.63          61.11          102.4
    0.1504               -47.6          28.53          30.83          33.75          -7.71         -6.194           93.8          32.58          60.56          60.58          99.92
    0.1538              -48.15          27.77          32.36          34.36         -7.888         -6.254          84.27           35.4          61.75          59.91          96.74
    0.1571              -48.84          26.81          34.28          35.14         -8.111         -6.329          72.28          38.95          63.24          59.06          92.74
    0.1605              -49.68          25.64          36.63          36.08         -8.383         -6.421          57.67          43.27          65.06          58.03          87.86
    0.1638              -50.65          24.29          39.34          37.17         -8.698         -6.527          40.74          48.28          67.17          56.83          82.21
    0.1672               -51.7          22.82          42.28          38.35         -9.039         -6.642           22.4          53.71          69.45          55.53          76.09
    0.1705              -52.76          21.35          45.23          39.53          -9.38         -6.757          4.068          59.14          71.74          54.23          69.97
    0.1738              -53.73           20.0          47.94          40.63         -9.695         -6.863         -12.86          64.15          73.84          53.03          64.31
    0.1772              -54.57          18.83          50.29          41.57         -9.967         -6.955         -27.47          68.47          75.66           52.0          59.44
    0.1805              -55.25          17.87          52.21          42.34         -10.19          -7.03         -39.46          72.02          77.16          51.15          55.44
    0.1839               -55.8          17.11          53.74          42.96         -10.37          -7.09         -48.99          74.84          78.34          50.48          52.25
    0.1872              -56.23          16.51          54.94          43.44         -10.51         -7.137         -56.46          77.05          79.27          49.95          49.76
    0.1906              -56.56          16.05          55.87          43.81         -10.61         -7.174         -62.27          78.78           80.0          49.54          47.82
    0.1939              -56.83          15.69           56.6           44.1          -10.7         -7.202         -66.82          80.12          80.56          49.21           46.3
    0.1973              -57.03           15.4          57.17          44.33         -10.77         -7.224         -70.39          81.18          81.01          48.96          45.11
    0.2006              -57.19          15.17          57.63          44.52         -10.82         -7.242         -73.23          82.02          81.36          48.76          44.16
    0.2039              -57.32          14.99          57.99          44.66         -10.86         -7.257          -75.5          82.69          81.64           48.6           43.4
    0.2073              -57.43          14.84          58.29          44.78         -10.89         -7.268         -77.35          83.24          81.87          48.47          42.79
    0.2106              -57.52          14.72          58.53          44.88         -10.92         -7.278         -78.86          83.68          82.06          48.36          42.28
     0.214              -57.59          14.62          58.73          44.96         -10.95         -7.285         -80.11          84.05          82.22          48.27          41.87
